<?xml version="1.0" encoding="UTF-8" standalone="no"?>
<!-- Generator: Adobe Illustrator 27.0.1, SVG Export Plug-In . SVG Version: 6.00 Build 0)  -->

<svg
   version="1.1"
   id="Logo"
   x="0px"
   y="0px"
   viewBox="0 0 1381.3113 444.20002"
   xml:space="preserve"
   sodipodi:docname="logo-black.svg"
   width="1381.3113"
   height="444.20001"
   inkscape:version="1.2.2 (732a01da63, 2022-12-09)"
   xmlns:inkscape="http://www.inkscape.org/namespaces/inkscape"
   xmlns:sodipodi="http://sodipodi.sourceforge.net/DTD/sodipodi-0.dtd"
   xmlns="http://www.w3.org/2000/svg"
   xmlns:svg="http://www.w3.org/2000/svg"><defs
   id="defs33" /><sodipodi:namedview
   id="namedview31"
   pagecolor="#ffffff"
   bordercolor="#000000"
   borderopacity="0.25"
   inkscape:showpageshadow="2"
   inkscape:pageopacity="0.0"
   inkscape:pagecheckerboard="0"
   inkscape:deskcolor="#d1d1d1"
   showgrid="false"
   inkscape:zoom="0.70879139"
   inkscape:cx="748.45718"
   inkscape:cy="63.488356"
   inkscape:window-width="2160"
   inkscape:window-height="1244"
   inkscape:window-x="-11"
   inkscape:window-y="-11"
   inkscape:window-maximized="1"
   inkscape:current-layer="Logo" />
<g
   id="Wordmark"
   style="fill:#000000"
   transform="translate(-192,-192.2)">
	<path
   d="m 916.7,395.7 c 3.8,0 6.9,-3 6.9,-6.9 0,-0.5 -0.1,-1.3 -0.5,-2 0,-0.1 0,-0.1 -0.1,-0.2 0,-0.2 -0.1,-0.3 -0.2,-0.4 -3.1,-7.2 -5.6,-13.6 -7.8,-19.4 -7.2,-19.3 -17.2,-53.4 -24.7,-84.9 -2.3,-9.5 -4.3,-19.5 -6.1,-28.3 -1,-4.8 -1.8,-8.9 -2.5,-12.3 -4.3,-19.5 -9.1,-30.8 -12.4,-36.7 -2.9,-5.5 -9.1,-11.9 -17,-11.9 -5.8,0 -9.7,2.3 -12,4.3 -2.2,1.8 -4.1,3.8 -5.8,6 -1.7,2.2 -3,4.6 -4.2,6.7 -2.2,4.1 -4.2,8.7 -6.1,13.9 -1.8,4.7 -3.3,9.5 -4.8,14.2 -0.9,3.1 -1.7,5.2 -2.7,8.1 -2.2,6.1 -5.8,16.3 -15.4,48 -9.5,25.4 -10.5,28 -19.3,47.1 -11.8,25.8 -16.6,34.2 -20.1,40.4 -0.8,1.4 -1.5,2.6 -2.1,3.8 -0.8,1.2 -1.2,2.4 -1.2,3.8 0,3.8 3,6.9 6.9,6.9 2.6,0 5.2,-1.7 6.4,-4.1 l 0.1,-0.2 v -0.1 c 2.4,-6.2 7.7,-21 12.7,-35.4 1.7,-4.7 3.3,-9.3 4.7,-13.4 0.6,-1.6 1.2,-3.4 1.8,-5.1 l 0.4,-1.3 c 7.4,-0.8 16.1,-1.6 24.6,-2.2 10.9,-0.8 24.1,-1.3 31,-1.5 3.1,-0.1 6.4,-0.2 9.5,-0.2 1.6,0 3.2,0 4.8,-0.1 h 5.4 c 10.1,0.4 20.9,0.9 31.3,1.8 2.5,11.3 4.7,21.7 6,27.9 0.6,2.9 1.1,4.9 1.2,5.8 2.3,11.9 4.6,23.1 4.6,23.2 v 0.1 c 1.3,2.8 3.9,4.6 6.7,4.6 z M 805.8,294.1 c 0.2,-0.4 0.3,-0.8 0.4,-1.2 v -0.1 c 0,-0.1 0.1,-0.1 0.1,-0.3 l 0.8,-2.1 c 0.9,-2.5 1.7,-4.9 2.4,-7.1 0.2,-0.8 0.5,-1.5 0.7,-2.3 4.9,-13.9 21.2,-53 25.8,-61.4 4.3,-7.9 10.1,-12.5 15.9,-12.7 4.4,-0.2 8.5,2.3 11.7,7.2 2.2,3.5 4.2,7.7 6,12.5 4.8,11.7 13.6,43.3 17.1,56.4 0.9,3.2 1.9,7.7 3.3,13.8 l 1.9,6.7 0.7,3 c 1.7,7.6 3.7,16.2 5.4,24.4 -10.1,-0.9 -20.7,-1.5 -31.6,-1.8 l -5.5,-0.2 c -4.6,-0.2 -8.9,-0.4 -13.3,-0.5 -9.6,-0.2 -19.4,-0.2 -29.1,0 -7.2,0.2 -14.9,0.5 -24.2,1 l 1.8,-5.4 c 2.2,-6.7 4.3,-13.1 6.1,-18.6 l 1.6,-5.5 v -0.2 c 0.2,-0.7 0.5,-1.3 0.7,-1.9 0.3,-0.7 0.5,-1.4 0.8,-2.1 0.1,-0.6 0.3,-1.1 0.5,-1.6 z"
   id="path2"
   style="fill:#000000" />
	<path
   d="m 1250.3,438.2 c -1.4,-0.9 -3,-1.3 -4.5,-1 -1.9,0.2 -3.7,1.1 -4.8,2.6 -1.1,1.4 -1.5,3.2 -1.2,4.8 2.1,16.2 3.2,32.1 4.1,46.9 0,2 0.1,4 0.2,5.9 0.1,1.9 0.1,3.9 0.2,5.9 0.3,3.7 0.6,20.8 0.6,28.6 0.2,2.9 0.1,27.2 -0.7,48.5 -0.6,18 -4.3,29.8 -11.1,36.1 -4.4,4 -10,5.9 -17.1,5.6 -18.3,-0.7 -27.5,-34.2 -37.3,-69.6 -1.3,-4.8 -2.7,-9.7 -4.1,-14.6 -9.2,-32.5 -19.3,-64.9 -22.6,-73.8 -5.5,-15 -13.1,-24.4 -22.6,-27.9 -7.1,-2.6 -13.9,-1.2 -17.6,0.8 -11.8,6.7 -17.4,18.4 -17,35.9 0,1.4 0.3,8 0.6,14.9 0.4,7.7 0.8,15.7 0.8,17.6 0.2,5.3 0.1,13.4 0.1,20.5 0,3.3 -0.1,6.3 -0.1,8.9 l -1.8,46.8 -0.2,4 c -0.8,14.7 -1.6,28.5 -3,43.1 v 1.3 c 0.3,3.4 3.2,5.9 6.6,5.9 0.2,0 0.4,0 0.6,0 1.8,-0.2 3.4,-1 4.5,-2.3 1.1,-1.3 1.6,-3 1.5,-4.8 -1.2,-16.8 -2.1,-32.6 -2.9,-47.1 -0.9,-15.4 -1.5,-31.1 -1.8,-46.7 v 0 c -0.3,-7.6 -0.9,-51.1 0.6,-62.7 2.1,-17.3 9.3,-25.3 22,-24.5 21.6,1.4 35.8,45 48,92 2.4,9.3 4.5,18.3 6.4,27.1 8.1,36 14.6,64.3 38.2,67.2 7.9,0.9 14.8,-1 20.3,-5.8 8.2,-7.2 13,-20.5 13.2,-36.5 0.1,-14.6 -0.2,-59.4 -0.2,-59.8 -0.3,-8.3 0,-25 0.3,-28.6 0.2,-2 0.2,-4 0.3,-5.9 0.1,-1.9 0.1,-3.9 0.3,-5.9 1.1,-18.3 2.4,-33.2 4.1,-47 v -1.5 -0.1 c -0.2,-1.9 -1.3,-3.7 -2.9,-4.8 z"
   id="path4"
   style="fill:#000000" />
	<path
   d="m 647.4,395.4 c 5.6,1.7 10.1,2.7 14.4,3.2 2.6,0.3 5.5,0.5 8.6,0.5 2,0 4,-0.1 6.2,-0.2 9.9,-0.6 19.7,-2.9 29,-6.8 5,-1.8 9.5,-4.3 13.7,-6.8 4.2,-2.6 8.4,-5.5 12.7,-8.9 l 0.3,-0.2 V 376 c 0.1,-0.1 0.2,-0.2 0.2,-0.4 2.3,-2.6 2.1,-6.8 -0.5,-9.4 -2.6,-2.5 -6.9,-2.4 -9.6,0.3 -2.7,3 -5.7,5.7 -9.6,9 -4.2,2.9 -8,5.2 -11.3,7 -4.4,2.2 -8.4,3.8 -12.5,5 -5.3,1.7 -9.3,2.7 -13.1,3.2 h -0.4 c -4.5,0.6 -8.7,1.1 -13.2,0.8 -4.5,0 -9.1,-0.6 -13.4,-1.8 -8.9,-2.1 -17.2,-6 -24.9,-11.6 -7.2,-5.3 -13.9,-12.3 -18.8,-19.7 -4.9,-7.6 -8.7,-16 -11.3,-25 -4.7,-15.6 -6.1,-33.6 -4.1,-53.7 0,-0.5 0.1,-1 0.1,-1.5 0.1,-0.5 0.2,-1.1 0.2,-1.7 0,-0.6 0.1,-1.1 0.1,-1.7 0.1,-0.6 0.2,-1.2 0.2,-1.8 l 0.9,-6.6 c 0.3,-1.2 0.5,-2.3 0.8,-3.4 0.2,-1.1 0.4,-2.2 0.7,-3.3 l 1.8,-6.7 c 1.5,-4.5 3.3,-8.8 5.3,-12.8 1.8,-3.6 4.2,-7.1 6.5,-10.5 l 0.8,-1.1 c 2.6,-3.3 5.6,-6.4 9.6,-10.1 3.3,-3 6.8,-6.1 10.7,-8.4 4.1,-2.6 8.2,-4.6 12.5,-6 4.7,-1.9 9.2,-3 13.1,-3.8 4.3,-1 8.7,-1.7 13.5,-2 h 6.6 c 1.3,0.3 2.4,0 3.4,0.3 l 3.6,0.3 0.3,0.1 c 1.1,0.3 2.1,0.5 3,0.5 l 3.4,0.9 c 1.9,0.5 4.3,1.1 6.3,2 l 0.3,0.1 c 2.1,0.8 4.1,1.6 6.1,2.8 1.5,0.7 3,1.6 4.6,2.6 0.5,0.3 1,0.6 1.4,0.9 14.6,10.1 25.9,25.4 31.7,43 v 0.1 c 0,0.1 0.1,0.2 0.1,0.3 l 1.4,4.1 v -2.1 c 0.9,1 2.1,1.7 3.5,2 1.8,0.4 3.7,0 5.3,-1.1 1.5,-1 2.6,-2.7 3,-4.5 0.3,-1.7 0,-3.4 -0.9,-4.8 -0.6,-0.9 -1.1,-1.7 -1.6,-2.5 -0.8,-1.4 -1.6,-2.7 -2.6,-3.9 -0.6,-0.7 -1,-1.5 -1.6,-2.3 -0.8,-1.3 -1.7,-2.6 -2.8,-3.8 l -4.4,-5.8 -5.3,-5.3 c -3.2,-3.5 -7.1,-6.8 -11,-10 l -6.1,-4.1 c -0.5,-0.3 -1,-0.6 -1.5,-0.9 -0.5,-0.3 -1,-0.6 -1.4,-0.8 l -1.5,-1.2 -1.9,-1 -0.2,-0.1 c -1.1,-0.3 -1.8,-0.8 -3,-1.7 -0.6,-0.4 -1.2,-0.7 -1.9,-1 -0.4,-0.2 -0.9,-0.4 -1.3,-0.6 -1.8,-1 -4,-1.9 -6.1,-2.7 l -0.6,-0.2 c -1,-0.6 -2.1,-0.9 -3.3,-1.2 l -3.6,-1.2 c -0.7,-0.2 -1.5,-0.4 -2.2,-0.6 -1.6,-0.5 -3.3,-1 -4.8,-1.2 l -3.5,-0.6 c -0.6,-0.2 -1.3,-0.2 -2,-0.3 -0.6,-0.1 -1.3,-0.1 -1.8,-0.3 h -0.2 c -0.6,0 -1.1,-0.1 -1.7,-0.1 -0.6,-0.1 -1.2,-0.2 -1.9,-0.2 H 666 c -4.8,0 -9.8,0.6 -14.5,1.8 -8.5,1.9 -17.2,5.8 -26.6,12.1 -3.8,2.8 -7.8,5.8 -11.5,9.2 -3.6,3.2 -6.8,6.6 -9.8,10.6 l -1.2,1.6 c -2.5,3.3 -5.1,6.6 -7.3,10.2 -0.5,0.8 -1,1.6 -1.6,2.5 -2.1,3.2 -4.2,6.6 -6.1,9.9 -5.2,10.7 -8.4,19.6 -10,28 -3.5,19.4 -0.7,40.2 7.7,58.4 3.7,8.3 8.7,16.5 15.3,25.1 7.3,8.9 13.9,15.4 21,20.4 9,6.4 17.5,10.8 26,13.4 z"
   id="path6"
   style="fill:#000000" />
	<path
   d="m 1091.8,330.7 c 0.2,-1 0.4,-1.9 0.7,-2.9 0.9,-4 1.8,-7.7 2.3,-11.5 1,-5.4 1.5,-9.9 1.8,-14.8 0,-4.9 0,-9.6 0.3,-14.6 0,-9.7 0.3,-19.4 0.9,-29 0.5,-17.1 1.4,-37.3 3.5,-58 v -1 c -0.2,-1.8 -1,-3.4 -2.3,-4.5 -1.4,-1.1 -3.1,-1.7 -4.9,-1.5 -1.8,0.2 -3.4,1 -4.6,2.4 -1.1,1.3 -1.6,2.9 -1.4,4.5 2,19.3 2.9,38.9 3.8,57.9 0.3,9.5 0.6,19.4 0.6,29.1 0.3,4.9 0.3,9.8 0.3,14.5 -0.3,4.5 -0.6,9.2 -1.5,14.3 -0.6,4.7 -1.8,9.5 -2.9,13.9 -1.4,4.1 -3.1,8.4 -5.3,13.2 -1.8,4.1 -4.2,8.2 -7,12.2 -2.9,4.4 -6.3,8 -9,10.7 -6.5,6.8 -14.1,12.3 -22,16 -8.4,3.7 -16.9,5.5 -25.4,5.5 -16.8,0 -34.1,-7.9 -47.2,-21.7 -6.4,-6.4 -11.9,-14.2 -16,-22.6 -2,-4.2 -3.7,-8.6 -5.3,-13.4 -1.4,-4.3 -2.3,-9 -3.2,-13.6 -0.9,-4.9 -1.2,-9.6 -1.5,-14.2 0,-4.7 0,-9.6 0.3,-14.6 0,-9.8 0.3,-19.6 0.6,-29 l 0.2,-5.3 c 0.8,-17.3 1.6,-35.1 3.3,-52.6 l 0.1,-1 V 199 c -0.2,-1.9 -1,-3.5 -2.3,-4.6 -1.3,-1.1 -2.9,-1.5 -4.6,-1.4 -1.8,0.2 -3.4,1 -4.6,2.4 -1.1,1.3 -1.6,2.9 -1.4,4.5 2.1,20.6 3,40.9 3.5,58 0.4,6.4 0.5,13 0.7,19.3 0.1,3.2 0.1,6.5 0.2,9.7 0,5 0,9.6 0.3,14.7 0.3,4.4 0.6,9.5 1.5,14.7 0.5,4.1 1.5,8.8 2.9,14.4 1.4,5.4 2.8,9.9 4.4,14.1 2,5.2 4.1,9.7 6.4,13.6 2.6,4.9 5.6,9.4 8,12.7 6.5,8.4 14.3,15.3 23.1,20.4 9.3,5.2 20.1,8 30.5,8 10.6,0 21.3,-3 30.2,-8.3 8.9,-5.3 16.8,-12.3 22.8,-20.4 6,-8 10.8,-16.8 14.4,-26.2 1.8,-4.6 3.2,-9 4.7,-13.6 z"
   id="path8"
   style="fill:#000000" />
	<path
   d="m 1126.1,362.6 c 2.6,5 6.5,10.1 11.6,15.1 5.2,4.5 10.9,7.9 15.4,10.3 2.8,1.2 5.7,2.4 8.5,3.2 2.8,1.2 5.7,2 8.6,2.6 6,1.7 12.3,2.5 18.5,2.5 17.8,0 35.6,-6.7 48.4,-18.8 1.8,-1.8 3.9,-4 5.8,-6.4 1.7,-1.9 3.2,-4.3 4.6,-6.4 l 0.5,-0.7 c 1.4,-2.5 2.6,-5.2 3.6,-8.4 0.6,-2.7 1.2,-5.7 1.5,-8.6 v 0 c 0.3,-6 -0.9,-11.9 -3.6,-17.7 -2.2,-4.9 -5.6,-9.9 -9.8,-14.8 -4.3,-4.6 -8.9,-8.4 -14.2,-11.5 -4.1,-2.6 -8.3,-4.8 -12.5,-6.4 l 15.2,-24.4 c 0.3,-0.1 0.4,-0.2 0.5,-0.5 0.2,-0.1 0.3,-0.3 0.3,-0.5 1.4,-2.1 2.9,-4.1 4.4,-6.2 1.7,-2.3 3.5,-4.7 5.2,-7.4 2.9,-4.7 5.9,-9.8 7.4,-15.8 0.7,-2.9 1.2,-5.8 0.9,-8.8 -0.3,-2.9 -0.8,-6 -2.4,-8.7 -1.2,-2.9 -2.6,-5.4 -4.5,-7.8 -1.4,-1.6 -2.8,-2.9 -4.1,-4.2 -0.7,-0.6 -1.3,-1.3 -2,-1.9 -8.6,-8.3 -19.9,-13.9 -31.7,-15.7 -12.1,-2.2 -24.4,-1.2 -35.6,2.9 -5.5,2 -10.2,4.8 -15.7,8.3 -2.7,1.8 -5,3.6 -6.8,5.4 -2.2,1.6 -4.2,3.6 -6.2,6.2 -4,4.3 -7.3,9.3 -9.6,14.6 -1.1,3 -1.7,5.7 -2.3,8.6 -0.2,0.8 -0.2,1.5 -0.3,2.3 -0.1,0.7 -0.1,1.4 -0.3,2.1 v 0.1 c 0,0.7 -0.1,1.4 -0.1,2.1 -0.1,0.7 -0.2,1.5 -0.2,2.2 -0.3,5.5 1.1,11.2 4.2,17.9 3.2,5.7 7.1,10.6 11.6,14.5 8.5,7.4 19.5,13.3 31.6,17.2 6,1.9 12.2,3 17.4,3.8 l 4.1,0.9 c 0.7,0.2 1.4,0.2 2.2,0.3 0.6,0.1 1.3,0.1 2,0.3 l 3.8,0.9 c 0.8,0.2 1.5,0.4 2.2,0.7 0.2,0.1 0.4,0.2 0.6,0.2 l -46.2,74 c -0.4,-0.3 -0.9,-0.5 -1.3,-0.7 -4.6,-2.6 -8.7,-5.7 -12.1,-9.5 -3.6,-3.9 -6.4,-8.3 -8.1,-12.7 -1.6,-4.4 -2.3,-9 -2,-14.1 v -1 c -0.3,-3.9 -4,-7.1 -7.8,-6.8 -3.9,0.3 -7.1,4 -6.8,7.8 0.5,6.3 2.3,12.8 5.6,19.4 z m 22.3,-151 c 0.3,-0.3 0.6,-0.5 1,-0.8 l 3.8,-2 c 4.4,-2.4 9.4,-4.2 15.3,-5.5 10.6,-2 21.5,-2.1 32.6,-0.3 5.2,0.6 10.7,1.7 16,3.2 4.7,1.6 10,3.7 14.5,6.9 1.1,0.8 2.2,1.6 3.1,2.5 l 1.5,1.5 1.5,1.8 c 1.8,2 3.4,4.3 4.6,6.5 2.3,4.9 2.9,10.6 1.4,15.7 -1.1,5.4 -3.6,10.1 -6.6,15.3 -1.2,1.9 -2.6,3.9 -3.9,5.8 -1.9,2.7 -3.8,5.5 -5.5,8.2 h -0.1 v 0.1 l -15.7,25.1 -2.2,-0.7 c -2.1,-0.6 -4,-1.2 -6.1,-1.8 -0.8,-0.3 -1.6,-0.5 -2.5,-0.8 l -4.4,-0.9 c -0.8,-0.2 -1.5,-0.3 -2.2,-0.4 -0.7,-0.2 -1.5,-0.3 -2.2,-0.4 l -16.1,-3.5 c -9.5,-2.8 -20.3,-6.3 -29.3,-12.5 -5,-3.3 -8.7,-6.8 -11.2,-10.6 -3.1,-4.6 -4.9,-9.6 -5.2,-14.6 -0.2,-1.7 -0.1,-3.6 -0.1,-5.5 0,-1 0.1,-2 0.1,-2.9 0.3,-2.6 0.9,-5.3 1.5,-7.8 1.8,-5.4 4.7,-10.4 8.4,-14.4 1.7,-1.9 3.7,-3.9 5.9,-5.6 0.7,-0.4 1.3,-1 2.1,-1.6 z m 86.8,107.8 c 2,1.8 4,3.6 5.8,5.6 1.5,1.7 3.1,3.9 4.9,6.6 2.6,4.7 4,10.1 4,15.4 -0.3,5.2 -1.9,10.4 -4.6,15.1 -1.8,2.8 -3.4,4.9 -4.9,6.6 -1.4,1.5 -2.9,2.8 -4.4,4.1 -0.6,0.5 -1.1,1 -1.7,1.5 -7.9,6.3 -18.2,10.5 -29.8,12.2 -5.5,0.9 -11,1.2 -16.3,0.9 -5.8,-0.2 -10.9,-0.8 -15.9,-2 -0.6,-0.2 -1.3,-0.4 -1.9,-0.6 -2,-0.6 -3.9,-1.1 -5.6,-2 l -0.1,-0.1 c -1.7,-0.5 -3,-1 -4.2,-1.6 l 46.5,-74.7 c 12.2,3.3 21.2,7.4 28.2,13 z"
   id="path10"
   style="fill:#000000" />
	<path
   d="m 1455.4,266.9 v 0.1 c 0.9,21.9 1.5,44.2 1.8,66.5 0,2.9 0.1,5.7 0.2,8.5 0.1,2.8 0.1,5.4 0.1,8 v 8.5 c 0,0.9 0,1.8 -0.1,2.7 -0.1,1.9 -0.1,3.9 0.1,5.9 0.3,5.5 2.2,11 5.8,16.5 1.6,2.2 3.7,4.2 6.3,6.3 2.5,2 5.5,3.4 7.8,4.5 h 0.1 c 2.8,0.8 5.6,1.2 8.2,1.4 l 0.8,0.1 8.5,0.3 16.7,0.9 c 3.6,0.2 9.2,0.4 15.7,0.7 13.1,0.5 29.5,1.1 37,1.9 h 1.3 c 1.8,-0.2 3.5,-1 4.7,-2.4 1.2,-1.4 1.8,-3.3 1.6,-5.1 -0.2,-1.9 -1,-3.6 -2.4,-4.7 -1.4,-1.2 -3.2,-1.7 -5.2,-1.6 -6.5,0.5 -19.9,1 -31.8,1.4 -8.4,0.3 -16.4,0.6 -21,0.9 -5.7,0.6 -11.3,0.9 -16.7,1.2 l -8.5,0.3 h -3.7 l -1.7,-0.3 -1.8,-0.6 c -3.1,-0.7 -5.1,-1.5 -6.8,-2.8 -2.2,-1.5 -3.9,-3.2 -5.7,-5.2 -1.7,-1.9 -2.8,-4.3 -4,-6.8 -0.8,-2.1 -1.4,-4.7 -1.8,-7.4 -0.3,-2.6 -0.3,-5.5 -0.3,-8.1 V 350 c 0,-5.3 0,-10.8 0.3,-16.4 0.3,-22.4 0.9,-44.8 1.8,-66.5 0.6,-21.6 1.7,-43.9 3.2,-66.5 v -0.1 l -0.2,-0.9 c -0.2,-1.8 -1.1,-3.5 -2.5,-4.7 -1.4,-1.1 -3,-1.7 -4.6,-1.5 -1.9,0 -3.6,0.7 -4.9,2.1 -1.3,1.4 -1.9,3.2 -1.7,5.1 1.6,21.9 2.6,44.5 3.4,66.3 z"
   id="path12"
   style="fill:#000000" />
	<path
   d="m 592.9,430.6 c -1.4,-0.9 -3,-1.3 -4.5,-1 -1.9,0.2 -3.6,1.1 -4.8,2.6 -1.1,1.4 -1.5,3.3 -1.2,4.9 2.2,16.5 3.2,32.7 4.1,47.7 0,2.1 0.1,4.1 0.2,6 0.1,1.9 0.1,3.9 0.2,6 0.3,3.5 0.6,8.1 0.6,12 0.2,5.2 0.1,10.4 0.1,15.8 0,2.7 -0.1,5.4 -0.1,8.2 l -1.8,47.5 -0.2,4.4 c -0.8,14.8 -1.6,28.7 -3,43.4 v 0 1.3 c 0.2,1.8 1,3.4 2.3,4.5 1.2,1 2.7,1.5 4.2,1.5 0.2,0 0.4,0 0.6,0 1.8,-0.2 3.4,-1 4.5,-2.3 1.1,-1.4 1.7,-3.1 1.5,-4.9 -1.1,-16.5 -2.1,-32.7 -2.9,-47.8 -0.9,-15.6 -1.5,-31.6 -1.8,-47.5 -0.3,-8.2 -0.3,-16.1 0,-24 0,-3.8 0,-8.2 0.3,-12 0.2,-2.1 0.2,-4.1 0.3,-6 0.1,-1.9 0.1,-3.9 0.3,-6 1.1,-18.5 2.4,-33.7 4.1,-47.8 v -1.5 -0.1 c -0.4,-2 -1.5,-3.8 -3,-4.9 z"
   id="path14"
   style="fill:#000000" />
	<path
   d="m 740.3,550.8 c -4.3,-4.6 -8.9,-8.4 -14.2,-11.5 -4.1,-2.6 -8.3,-4.8 -12.5,-6.4 l 15.2,-24.4 c 0.3,-0.1 0.4,-0.2 0.5,-0.5 0.2,-0.1 0.3,-0.3 0.3,-0.5 1.4,-2.1 2.9,-4.1 4.4,-6.2 1.7,-2.3 3.5,-4.7 5.2,-7.4 2.9,-4.7 5.9,-9.8 7.4,-15.8 0.7,-2.9 1.2,-5.8 0.9,-8.8 -0.3,-2.9 -0.8,-6 -2.4,-8.7 -1.2,-2.9 -2.6,-5.4 -4.5,-7.8 -1.4,-1.6 -2.8,-2.9 -4.1,-4.2 -0.7,-0.6 -1.3,-1.3 -2,-1.9 -8.6,-8.3 -19.9,-13.9 -31.7,-15.7 -12.1,-2.2 -24.4,-1.2 -35.6,2.9 -5.5,2 -10.2,4.8 -15.7,8.3 -2.7,1.8 -5,3.6 -6.8,5.4 -2.2,1.6 -4.2,3.6 -6.2,6.2 -4,4.3 -7.3,9.3 -9.6,14.6 -1.1,3 -1.7,5.7 -2.3,8.6 -0.2,0.8 -0.2,1.5 -0.3,2.3 -0.1,0.7 -0.1,1.4 -0.3,2.1 v 0.1 c 0,0.7 -0.1,1.4 -0.1,2.1 -0.1,0.7 -0.2,1.5 -0.2,2.2 -0.3,5.5 1.1,11.2 4.2,17.9 3.2,5.7 7.1,10.6 11.6,14.5 8.5,7.4 19.5,13.3 31.6,17.2 6,1.9 12.2,3 17.4,3.8 l 4.1,0.9 c 0.7,0.2 1.4,0.2 2.1,0.3 0.6,0.1 1.3,0.1 2,0.3 l 3.8,0.9 c 0.8,0.2 1.5,0.4 2.2,0.7 0.2,0.1 0.4,0.2 0.6,0.2 l -46.2,74 c -0.4,-0.3 -0.9,-0.5 -1.3,-0.7 -4.7,-2.7 -8.7,-5.9 -12.1,-9.6 -3.6,-3.9 -6.4,-8.3 -8.1,-12.7 -1.6,-4.4 -2.3,-9 -2,-14.1 v -1 c -0.3,-3.9 -4,-7.1 -7.8,-6.8 -1.9,0.2 -3.7,1.1 -5,2.6 -1.3,1.5 -2,3.4 -1.8,5.2 0.3,6.2 2.1,12.7 5.4,19.3 2.6,5 6.5,10.1 11.6,15.1 5.2,4.5 10.9,7.9 15.4,10.3 2.8,1.2 5.8,2.4 8.5,3.2 2.8,1.1 5.8,2.1 8.6,2.6 6,1.7 12.3,2.5 18.5,2.5 17.8,0 35.6,-6.7 48.4,-18.8 1.8,-1.8 3.9,-4 5.8,-6.4 1.7,-1.9 3.2,-4.3 4.6,-6.4 l 0.5,-0.7 c 1.4,-2.5 2.6,-5.2 3.6,-8.4 0.6,-2.7 1.2,-5.7 1.5,-8.6 v 0 c 0.3,-6 -0.9,-11.9 -3.6,-17.6 -1.9,-4.8 -5.2,-9.8 -9.5,-14.7 z m -91.4,-103 c 0.3,-0.3 0.6,-0.5 1,-0.8 l 3.8,-2 c 4.4,-2.4 9.4,-4.2 15.3,-5.5 10.6,-2 21.5,-2.1 32.6,-0.3 5.2,0.6 10.7,1.7 16,3.2 4.7,1.6 10,3.7 14.5,6.9 1.1,0.8 2.2,1.6 3.1,2.5 l 1.5,1.5 1.5,1.8 c 1.8,2 3.4,4.3 4.6,6.5 2.3,4.9 2.9,10.6 1.4,15.7 -1.1,5.4 -3.6,10.1 -6.6,15.3 -1.2,1.9 -2.6,3.9 -3.9,5.8 -1.9,2.7 -3.8,5.5 -5.5,8.2 l -15.8,25.2 -2.2,-0.7 c -2.1,-0.6 -4,-1.2 -6.1,-1.8 -0.8,-0.3 -1.6,-0.5 -2.5,-0.8 l -4.4,-0.9 c -0.7,-0.1 -1.5,-0.3 -2.2,-0.4 -0.7,-0.1 -1.5,-0.3 -2.2,-0.4 l -16.1,-3.5 c -9.5,-2.8 -20.3,-6.3 -29.3,-12.5 -5,-3.3 -8.7,-6.8 -11.2,-10.6 -3.1,-4.6 -4.9,-9.6 -5.2,-14.6 -0.2,-1.7 -0.1,-3.6 -0.1,-5.5 0,-1 0.1,-2 0.1,-2.9 0.3,-2.6 0.9,-5.2 1.5,-7.8 1.8,-5.4 4.7,-10.4 8.4,-14.4 1.7,-1.9 3.7,-3.9 5.9,-5.6 0.7,-0.4 1.4,-1 2.1,-1.6 z m 86.9,107.7 c 2,1.8 4,3.6 5.8,5.6 1.5,1.7 3.1,3.8 4.9,6.6 2.6,4.7 4,10.1 4,15.4 -0.3,5.1 -1.8,10.3 -4.5,15.2 -1.8,2.8 -3.4,4.9 -4.9,6.6 -1.4,1.5 -2.9,2.8 -4.4,4.1 -0.6,0.5 -1.1,1 -1.7,1.5 -7.9,6.3 -18.2,10.5 -29.8,12.2 -5.5,0.9 -11,1.2 -16.3,0.9 -5.8,-0.2 -10.9,-0.8 -15.9,-2 -0.6,-0.2 -1.3,-0.4 -1.9,-0.6 -2,-0.6 -3.9,-1.1 -5.6,-2 l -0.1,-0.1 c -1.7,-0.5 -3,-1 -4.2,-1.6 l 46.4,-74.8 c 12.1,3.4 21.1,7.5 28.2,13 z"
   id="path16"
   style="fill:#000000" />
	<path
   d="m 894.4,623.5 c -1.4,-1.2 -3.2,-1.7 -5.2,-1.6 -6.5,0.5 -19.9,1 -31.8,1.4 -8.4,0.3 -16.4,0.6 -20.9,0.9 -5.7,0.6 -11.3,0.9 -16.7,1.2 l -8.5,0.3 h -3.7 l -1.7,-0.3 -1.8,-0.6 c -3.1,-0.7 -5.1,-1.5 -6.8,-2.8 -2.2,-1.5 -3.9,-3.2 -5.7,-5.2 -1.7,-1.9 -2.8,-4.3 -4,-6.8 -0.8,-2.1 -1.4,-4.7 -1.8,-7.4 -0.3,-2.6 -0.3,-5.5 -0.3,-8.1 V 586 c 0,-5.3 0,-10.8 0.3,-16.4 0.3,-22.4 0.9,-44.7 1.8,-66.5 0.6,-21.6 1.7,-44 3.2,-66.5 l 0.1,-0.8 h -0.2 v -0.1 c -0.2,-1.8 -1.1,-3.6 -2.5,-4.8 -1.4,-1.1 -3,-1.7 -4.6,-1.5 -1.9,0 -3.6,0.7 -4.9,2.1 -1.3,1.4 -1.9,3.2 -1.7,5.1 1.4,22 2.3,44.6 3.2,66.5 0.9,21.9 1.5,44.3 1.8,66.5 0,2.9 0.1,5.7 0.2,8.5 0.1,2.8 0.1,5.4 0.1,8 v 8.5 c 0,0.9 0,1.8 -0.1,2.7 -0.1,1.9 -0.1,3.9 0.1,5.9 0.3,5.5 2.2,11 5.8,16.5 1.6,2.2 3.7,4.2 6.3,6.3 2.5,2 5.5,3.4 7.8,4.5 h 0.1 c 2.8,0.8 5.6,1.2 8.2,1.4 l 0.8,0.1 8.5,0.3 16.7,0.9 c 3.6,0.2 9.2,0.4 15.7,0.7 13.1,0.5 29.5,1.1 37,1.9 h 1.2 c 1.8,-0.2 3.5,-1 4.7,-2.4 1.2,-1.4 1.8,-3.3 1.6,-5.1 -0.1,-2 -0.9,-3.7 -2.3,-4.8 z"
   id="path18"
   style="fill:#000000" />
	<path
   d="m 1404.8,481.9 c -0.8,-1.2 -1.6,-2.4 -2.4,-3.7 -2.3,-3.7 -4.7,-7.4 -7.6,-11 -3.6,-4.4 -8,-8.9 -12.7,-13 -4.1,-3.8 -8.9,-7.4 -14.7,-10.9 -6,-3.7 -11.8,-6.4 -17.1,-8.3 -11.4,-4.7 -23.9,-7.1 -37.1,-7.1 -7.2,0 -14.3,1.6 -20.7,4.7 -6.4,3.1 -12.1,7.6 -15.8,12.9 -3.8,5.5 -6.2,12.2 -6.8,18.9 v 4.7 l 0.3,4.4 0.3,8.5 c 0.3,4.5 0.6,9.1 0.9,13.7 0.4,6.6 0.9,13.4 1.4,19.9 v 0.8 c 0.3,11.3 0.6,22 0.6,33.2 0,11.4 -0.3,23.2 -0.6,33.7 0,1 -0.1,2.7 -0.3,4.6 -0.3,3.8 -0.8,9 -0.5,12.8 0.3,4.6 2.6,12.1 7.1,17.6 1.6,2 4.2,4.8 6.8,7.1 l 1.8,1.5 1.2,0.9 1.3,0.6 1.9,1.1 c 0.6,0.7 1.4,1 2.5,1.3 2.2,1.1 5,2 7.4,2.7 0.6,0.2 1.2,0.4 1.8,0.5 h 0.1 c 0.9,0.1 1.6,0.3 2.3,0.5 0.9,0.2 1.8,0.4 2.7,0.4 2.1,0.3 3.8,0.3 5,0.3 0.8,0 1.7,0 2.5,0 11.9,0 23.8,-2 35.2,-5.9 11.9,-4 22.8,-10.4 32.5,-18.9 4.9,-4 8.8,-8.6 12.7,-13.3 4,-4.8 7.2,-9.7 9.8,-15.1 5.9,-11.2 9.5,-22.5 10.6,-33.3 1.7,-11.1 1.5,-22.7 -0.6,-34.5 -1.9,-10.6 -5.9,-21.5 -11.8,-32.3 z m 7.5,66.2 c -2.2,10.1 -6.7,20.2 -13.1,30.2 -6.2,8.9 -14.1,16.8 -23.3,23.6 -8.6,6.3 -18.6,11.7 -29,15.4 -11.4,3.8 -22.2,5.8 -32.8,6.1 h -0.1 c -1.4,0.3 -2.5,0 -3.7,0.3 -0.7,0 -1.3,-0.1 -1.9,-0.2 -0.6,-0.1 -1.1,-0.1 -1.7,-0.1 -2.9,-0.5 -5.2,-1.1 -7.7,-2 -1.8,-0.7 -4.4,-1.8 -6.5,-3.4 -0.3,-0.3 -0.7,-0.5 -1,-0.8 -1.7,-1.2 -3.4,-2.5 -4.6,-4.1 l -0.1,-0.1 c -3.6,-3.6 -6.4,-8.6 -7.4,-13.2 -0.5,-2.2 -0.6,-6 -0.7,-10.4 -0.1,-2 -0.1,-4 -0.2,-6.2 -0.5,-11.7 -0.6,-23.6 -0.6,-33.6 0,-11.6 0,-22.5 0.6,-33.9 0.3,-6.4 0.7,-13 1.1,-19.4 0.3,-4.7 0.6,-9.6 0.9,-14.3 l 0.9,-13 v -1.7 l 0.3,-1.9 c 0.7,-4.1 2.8,-8.5 5.9,-12.3 3.3,-3.9 7,-6.7 11.4,-8.6 3.9,-1.4 8.7,-2.9 14.4,-2.9 10.8,0 22.3,1.8 33.2,5.1 10.4,2.8 20.5,7.6 29.9,14.2 9.5,6.5 17.5,14.4 23.8,23.5 6.4,9.2 10.8,19.6 13.1,30.7 1.6,11.7 1.3,23.1 -1.1,33 z"
   id="path20"
   style="fill:#000000" />
	<path
   d="m 1569.9,565.6 c -2.2,-4.9 -5.6,-9.9 -9.8,-14.8 -4.3,-4.6 -8.9,-8.4 -14.2,-11.5 -4.1,-2.6 -8.3,-4.8 -12.5,-6.4 l 15.2,-24.4 c 0.3,-0.1 0.4,-0.2 0.5,-0.5 0.2,-0.1 0.3,-0.3 0.3,-0.5 1.4,-2.1 2.9,-4.1 4.4,-6.2 1.7,-2.3 3.5,-4.7 5.2,-7.4 2.9,-4.7 5.9,-9.8 7.4,-15.8 0.7,-2.9 1.2,-5.8 0.9,-8.8 -0.3,-2.9 -0.8,-6 -2.4,-8.7 -1.2,-2.9 -2.6,-5.4 -4.5,-7.8 -1.4,-1.6 -2.8,-2.9 -4.1,-4.2 -0.7,-0.6 -1.3,-1.3 -2,-1.9 -8.6,-8.3 -19.9,-13.9 -31.7,-15.7 -12.1,-2.2 -24.4,-1.2 -35.6,2.9 -5.5,2 -10.2,4.8 -15.7,8.3 -2.7,1.8 -5,3.6 -6.8,5.4 -2.2,1.6 -4.2,3.6 -6.2,6.2 -4,4.3 -7.3,9.3 -9.6,14.6 -1.1,3 -1.7,5.8 -2.3,8.6 -0.2,0.8 -0.2,1.5 -0.3,2.3 -0.1,0.7 -0.1,1.4 -0.3,2.1 v 0.1 c 0,0.7 -0.1,1.4 -0.1,2.1 -0.1,0.7 -0.2,1.5 -0.2,2.2 -0.3,5.5 1.1,11.2 4.2,17.9 3.2,5.7 7.1,10.6 11.6,14.5 8.5,7.4 19.5,13.3 31.6,17.2 6,1.9 12.2,3 17.4,3.8 l 4.1,0.9 c 0.7,0.2 1.4,0.2 2.1,0.3 0.6,0.1 1.3,0.1 2,0.3 l 3.8,0.9 c 0.8,0.2 1.5,0.4 2.2,0.7 0.2,0.1 0.4,0.2 0.6,0.2 l -46.2,74 c -0.4,-0.3 -0.9,-0.5 -1.3,-0.7 -4.8,-2.7 -8.7,-5.9 -12.1,-9.6 -3.6,-3.9 -6.4,-8.3 -8.1,-12.7 -1.6,-4.4 -2.3,-9 -2,-14.1 v -1 c -0.3,-3.9 -4,-7.1 -7.8,-6.8 -1.9,0.2 -3.7,1.1 -5,2.6 -1.3,1.5 -2,3.4 -1.8,5.2 0.3,6.2 2.1,12.7 5.4,19.3 2.6,5 6.5,10.1 11.6,15.1 5.2,4.5 10.9,7.9 15.4,10.3 2.8,1.2 5.8,2.4 8.5,3.2 2.8,1.1 5.8,2.1 8.6,2.6 6,1.7 12.3,2.5 18.5,2.5 17.8,0 35.6,-6.7 48.4,-18.8 1.8,-1.8 3.9,-4 5.8,-6.4 1.7,-1.9 3.2,-4.3 4.6,-6.4 l 0.5,-0.7 c 1.4,-2.5 2.6,-5.2 3.6,-8.4 0.6,-2.7 1.2,-5.7 1.5,-8.6 v 0 c 0.5,-5.9 -0.7,-11.9 -3.3,-17.5 z M 1468.6,447.8 c 0.3,-0.3 0.6,-0.5 1,-0.8 l 3.8,-2 c 4.4,-2.4 9.4,-4.2 15.3,-5.5 10.6,-2 21.5,-2.1 32.6,-0.3 5.2,0.6 10.7,1.7 16,3.2 4.7,1.6 10,3.7 14.5,6.9 1.1,0.8 2.2,1.6 3.1,2.5 l 1.5,1.5 1.5,1.8 c 1.8,2 3.4,4.3 4.6,6.5 2.3,4.9 2.9,10.6 1.4,15.7 -1.1,5.4 -3.6,10.1 -6.6,15.3 -1.2,1.9 -2.6,3.9 -3.9,5.8 -1.9,2.7 -3.8,5.5 -5.5,8.2 l -15.8,25.2 -2.2,-0.7 c -2.1,-0.6 -4,-1.2 -6.1,-1.8 -0.8,-0.3 -1.6,-0.5 -2.5,-0.8 l -4.4,-0.9 c -0.8,-0.1 -1.5,-0.3 -2.2,-0.4 -0.7,-0.1 -1.5,-0.3 -2.2,-0.4 l -16.1,-3.5 c -9.5,-2.8 -20.3,-6.3 -29.3,-12.5 -5,-3.3 -8.7,-6.8 -11.2,-10.6 -3.1,-4.6 -4.9,-9.6 -5.2,-14.6 -0.2,-1.7 -0.1,-3.6 -0.1,-5.5 0,-1 0.1,-2 0.1,-2.9 0.3,-2.6 0.9,-5.2 1.5,-7.8 1.8,-5.4 4.7,-10.4 8.4,-14.4 1.7,-1.9 3.7,-3.9 5.9,-5.6 0.7,-0.4 1.4,-1 2.1,-1.6 z m 86.8,107.7 c 2,1.8 4,3.6 5.8,5.6 1.5,1.7 3.1,3.8 4.9,6.6 2.6,4.7 4,10.1 4,15.4 -0.3,5.1 -1.8,10.4 -4.5,15.1 -1.8,2.8 -3.4,4.9 -4.9,6.6 -1.4,1.5 -2.9,2.8 -4.4,4.1 -0.6,0.5 -1.1,1 -1.7,1.5 -7.9,6.3 -18.2,10.5 -29.8,12.2 -5.5,0.9 -11,1.2 -16.3,0.9 -5.8,-0.2 -10.9,-0.8 -15.9,-2 -0.6,-0.2 -1.3,-0.4 -1.9,-0.6 -2,-0.6 -3.9,-1.1 -5.6,-2 l -0.1,-0.1 c -1.7,-0.5 -3,-1 -4.2,-1.6 l 46.5,-74.7 c 12.2,3.4 21.1,7.5 28.1,13 z"
   id="path22"
   style="fill:#000000" />
	<path
   d="m 1431.9,386.6 c 0,-0.2 -0.1,-0.3 -0.2,-0.4 -3.1,-7.2 -5.6,-13.6 -7.8,-19.4 -7.2,-19.3 -17.2,-53.4 -24.7,-84.9 -2.3,-9.5 -4.3,-19.5 -6.1,-28.2 -1,-4.8 -1.8,-8.9 -2.5,-12.3 -4.3,-19.5 -9.1,-30.8 -12.4,-36.7 -2.9,-5.5 -9.1,-11.9 -17,-11.9 -5.8,0 -9.7,2.3 -12,4.3 -2.2,1.8 -4.1,3.8 -5.8,6 -1.7,2.2 -3,4.6 -4.2,6.7 -2.2,4.1 -4.2,8.7 -6.1,13.9 -1.8,4.7 -3.3,9.5 -4.8,14.2 -0.9,3.1 -1.7,5.2 -2.7,8 -2.2,6.1 -5.8,16.3 -15.4,48 -9.5,25.3 -10.5,28 -19.3,47.1 -11.8,25.8 -16.6,34.2 -20.1,40.4 -0.8,1.4 -1.5,2.6 -2.1,3.8 -0.8,1.2 -1.2,2.4 -1.2,3.8 0,3.8 3,6.9 6.9,6.9 2.6,0 5.2,-1.7 6.4,-4.1 l 0.1,-0.2 v -0.1 c 2.4,-6.2 7.7,-21.1 12.8,-35.4 1.6,-4.7 3.3,-9.2 4.7,-13.3 0.6,-1.6 1.2,-3.4 1.8,-5.1 l 0.4,-1.3 c 7.4,-0.8 16.1,-1.6 24.6,-2.2 10.9,-0.8 24.1,-1.3 31,-1.5 3.1,-0.1 6.4,-0.2 9.5,-0.2 1.6,0 3.2,0 4.8,-0.1 h 5.4 c 10.1,0.4 20.9,0.9 31.3,1.8 2.5,11.3 4.7,21.7 6,27.9 0.6,2.9 1.1,4.9 1.2,5.8 2.3,11.9 4.6,23.1 4.6,23.2 v 0.1 c 1.1,2.8 3.6,4.6 6.5,4.6 3.8,0 6.9,-3 6.9,-6.9 0,-0.5 -0.1,-1.3 -0.5,-2 0,-0.2 0,-0.2 0,-0.3 z m -117.2,-92.5 c 0.1,-0.4 0.3,-0.8 0.4,-1.2 v -0.1 c 0,-0.1 0.1,-0.1 0.1,-0.2 l 0.8,-2.1 c 0.9,-2.5 1.7,-4.9 2.4,-7.1 0.2,-0.8 0.5,-1.5 0.7,-2.3 4.9,-13.9 21.2,-53 25.8,-61.4 4.3,-7.9 10.1,-12.5 15.9,-12.7 4.4,-0.2 8.5,2.3 11.7,7.2 2.2,3.5 4.2,7.7 5.9,12.5 4.8,11.7 13.6,43.3 17.1,56.4 0.9,3.4 2.1,8.4 3.3,13.8 l 1.9,6.7 0.7,3 c 1.7,7.6 3.7,16.2 5.4,24.4 -10.2,-0.9 -20.8,-1.5 -31.7,-1.8 l -5.5,-0.2 c -4.6,-0.2 -8.9,-0.4 -13.3,-0.5 -9.6,-0.2 -19.4,-0.2 -29,0 -7.2,0.2 -14.9,0.5 -24.2,1 l 1.8,-5.3 c 2.2,-6.8 4.4,-13.2 6.1,-18.7 l 1.6,-5.5 v -0.2 c 0.2,-0.7 0.5,-1.3 0.7,-1.9 0.3,-0.7 0.5,-1.4 0.8,-2.1 0.2,-0.7 0.4,-1.2 0.6,-1.7 z"
   id="path24"
   style="fill:#000000" />
	<path
   d="m 1075.3,627.1 c 0,-0.2 -0.1,-0.3 -0.2,-0.4 -3.1,-7.2 -5.6,-13.6 -7.8,-19.4 -7.2,-19.3 -17.2,-53.4 -24.7,-84.9 -2.3,-9.5 -4.3,-19.5 -6.1,-28.2 -1,-4.8 -1.8,-8.9 -2.5,-12.3 -4.3,-19.5 -9.1,-30.8 -12.4,-36.7 -2.9,-5.5 -9.1,-11.9 -17,-11.9 -5.8,0 -9.7,2.3 -12,4.3 -2.2,1.8 -4.1,3.8 -5.8,6 -1.7,2.2 -3,4.6 -4.2,6.7 -2.2,4.1 -4.2,8.7 -6.1,13.9 -1.8,4.7 -3.3,9.5 -4.8,14.2 -0.9,3.1 -1.7,5.1 -2.7,8 -2.2,6.1 -5.8,16.3 -15.4,48 -9.5,25.3 -10.5,28 -19.3,47.1 -11.8,25.8 -16.6,34.2 -20.1,40.4 -0.8,1.4 -1.5,2.6 -2.1,3.8 -0.8,1.2 -1.2,2.4 -1.2,3.8 0,3.8 3,6.9 6.9,6.9 2.6,0 5.2,-1.7 6.4,-4.1 l 0.1,-0.3 v 0 c 2.4,-6.2 7.7,-21 12.7,-35.3 1.7,-4.7 3.3,-9.3 4.8,-13.4 0.6,-1.6 1.2,-3.4 1.8,-5.1 l 0.4,-1.3 c 7.4,-0.8 16.1,-1.6 24.6,-2.3 10.9,-0.8 24.1,-1.3 31,-1.5 3.1,-0.1 6.3,-0.2 9.5,-0.2 1.6,0 3.2,0 4.8,-0.1 h 5.4 c 10.1,0.4 20.9,0.9 31.3,1.9 2.5,11.3 4.7,21.7 6,27.9 0.6,2.9 1.1,5 1.2,5.8 2.3,11.9 4.6,23.1 4.6,23.2 v 0.1 c 1.1,2.8 3.6,4.6 6.5,4.6 3.8,0 6.9,-3 6.9,-6.9 0,-0.5 -0.1,-1.3 -0.5,-2 0.1,-0.2 0,-0.2 0,-0.3 z M 957.9,534.5 c 0.2,-0.4 0.3,-0.8 0.4,-1.2 v -0.1 c 0,-0.1 0.1,-0.1 0.1,-0.3 l 0.8,-2.1 c 0.9,-2.5 1.7,-4.9 2.4,-7.1 0.2,-0.8 0.5,-1.5 0.7,-2.3 4.9,-13.9 21.2,-53 25.8,-61.4 4.3,-7.9 10.1,-12.5 15.9,-12.7 4.4,-0.2 8.5,2.3 11.7,7.2 2.2,3.5 4.2,7.7 5.9,12.5 4.8,11.6 13.6,43.3 17.1,56.4 0.9,3.2 1.9,7.7 3.3,13.8 l 1.9,6.7 0.7,3.1 c 1.7,7.6 3.7,16.1 5.4,24.3 -9.9,-0.9 -20.6,-1.5 -31.6,-1.8 l -5.5,-0.2 c -4.6,-0.2 -8.9,-0.4 -13.4,-0.5 -9.6,-0.2 -19.4,-0.2 -29.1,0 -7.2,0.2 -14.9,0.5 -24.2,1 l 1.8,-5.5 c 2.2,-6.7 4.3,-13.1 6.1,-18.5 l 1.6,-5.5 v -0.2 c 0.2,-0.7 0.5,-1.3 0.7,-1.9 0.3,-0.7 0.5,-1.4 0.8,-2.1 0.3,-0.5 0.5,-1 0.7,-1.6 z"
   id="path26"
   style="fill:#000000" />
</g>
<path
   id="Symbol"
   d="m 281.8,396.1 -66.9,-91.8 63.4,-60.8 c 6.1,-5.5 9.6,-14 9.6,-23.5 0,-9.5 -3.5,-18 -9.6,-23.5 l -62.7,-57.9 66,-90.6 c 7,-9.2 8.1,-20.9 3,-31.2 C 279.5,6.5 269.1,0.1 257.5,0.1 H 30.3 c -11.6,0 -22,6.4 -27.1,16.7 -5.1,10.3 -4,22 3,31.2 l 66,90.7 -62.6,57.9 c -6.1,5.5 -9.6,14 -9.6,23.5 0,9.5 3.5,18 9.6,23.5 l 63.5,60.8 -66.9,91.8 c -7,9.2 -8.1,20.9 -3,31.2 5.1,10.3 15.5,16.7 27.1,16.7 h 227.5 c 11.6,0 22,-6.4 27.1,-16.7 5,-10.4 3.9,-22.1 -3.1,-31.3 z m -149,-160.4 c 6.2,-8 6.2,-19.2 0,-27.2 L 80.6,139.7 133.3,92.9 c 3.1,-2.9 6.8,-4.3 10.6,-4.3 3.7,0 7.4,1.4 10.6,4.3 l 52.8,46.9 -52.2,68.7 c -6,8 -6,19.2 0,27.2 l 51.4,67.7 -51.9,47.9 c -6.3,5.7 -14.8,5.7 -21.2,0 l -52,-47.9 z m 30.4,-2.4 c -5,-6.7 -5,-15.9 0,-22.5 l 48.8,-66.9 63.8,56.7 c 5.1,4.6 8,11.7 8,19.6 0,7.8 -2.9,14.9 -8,19.4 l -64.6,59.6 z M 157.1,84.5 v 0 c -7.9,-7.1 -18.5,-7.1 -26.4,0 l -54,50 L 9.3,45.7 C 3.3,37.7 2.4,27.5 6.8,18.5 11.3,9.4 20.1,4 30.2,4 31,4 113.7,8.9 143.9,8.9 174.1,8.9 256.8,4.1 257.6,4 c 10.1,0 19.2,5.6 23.6,14.6 4.4,9 3.4,19.1 -2.6,27.1 l -67.4,88.8 z m -32.3,126.3 c 5,6.7 5,15.9 0,22.5 L 76.9,299.1 12.2,239.5 c -5,-4.6 -7.9,-11.7 -7.9,-19.5 0,-7.8 2.9,-15 7.9,-19.5 L 76,143.8 Z m 6,148.8 c 3.9,3.5 8.6,5.3 13.2,5.3 4.6,0 9.3,-1.8 13.2,-5.3 l 53.3,-51.1 68.3,89.8 c 6,8 6.9,18.2 2.5,27.2 -4.5,9.1 -13.3,14.5 -23.4,14.5 -0.9,0 -90.7,-3.7 -113.7,-3.7 -22.9,0 -112.8,3.7 -113.7,3.7 -10.1,0 -19.2,-5.6 -23.6,-14.6 -4.4,-9 -3.4,-19.1 2.6,-27.1 l 68.1,-89.8 z"
   style="fill:#000000" />
</svg>
